<?xml version="1.0" standalone="no"?>
<!DOCTYPE svg PUBLIC "-//W3C//DTD SVG 20010904//EN"
 "http://www.w3.org/TR/2001/REC-SVG-20010904/DTD/svg10.dtd">
<svg version="1.0" xmlns="http://www.w3.org/2000/svg"
 width="258.000000pt" height="258.000000pt" viewBox="0 0 258.000000 258.000000"
 preserveAspectRatio="xMidYMid meet">
<metadata>
Created by potrace 1.14, written by Peter Selinger 2001-2017
</metadata>
<g transform="translate(0.000000,258.000000) scale(0.100000,-0.100000)"
fill="#000000" stroke="none">
<path d="M1150 2543 c-14 -2 -61 -11 -105 -20 -521 -102 -938 -541 -1012
-1063 -10 -67 -10 -299 -1 -360 61 -415 322 -777 693 -963 70 -34 245 -101
245 -92 0 2 11 0 25 -5 103 -39 397 -47 556 -15 149 29 348 113 471 198 260
179 449 450 519 745 29 121 31 133 34 277 4 172 -15 294 -69 460 -60 186 -215
406 -386 547 -25 21 -50 42 -57 47 -102 85 -369 203 -513 226 -25 4 -54 10
-65 12 -25 7 -302 12 -335 6z"/>
</g>
</svg>
